name D:\school\WTK\thesis\model\3dpredictsim\Results\MidTarsalJoint\Fal_s1_bCst_PF_Natali2010_ls150_MT_k100_MTP_T10_ig24.mot
datacolumns 128
datarows 4
range 0.00000000 0.03536597
endheader
time	pelvis_tilt	pelvis_list	pelvis_rotation	pelvis_tx	pelvis_ty	pelvis_tz	hip_flexion_l	hip_adduction_l	hip_rotation_l	hip_flexion_r	hip_adduction_r	hip_rotation_r	knee_angle_l	knee_angle_r	ankle_angle_l	ankle_angle_r	subtalar_angle_l	subtalar_angle_r	mtj_angle_l	mtj_angle_r	mtp_angle_l	mtp_angle_r	lumbar_extension	lumbar_bending	lumbar_rotation	arm_flex_l	arm_add_l	arm_rot_l	arm_flex_r	arm_add_r	arm_rot_r	elbow_flex_l	elbow_flex_r	pro_sup_l	pro_sup_r	glut_med1_l/activation	glut_med2_l/activation	glut_med3_l/activation	glut_min1_l/activation	glut_min2_l/activation	glut_min3_l/activation	semimem_l/activation	semiten_l/activation	bifemlh_l/activation	bifemsh_l/activation	sar_l/activation	add_long_l/activation	add_brev_l/activation	add_mag1_l/activation	add_mag2_l/activation	add_mag3_l/activation	tfl_l/activation	pect_l/activation	grac_l/activation	glut_max1_l/activation	glut_max2_l/activation	glut_max3_l/activation	iliacus_l/activation	psoas_l/activation	quad_fem_l/activation	gem_l/activation	peri_l/activation	rect_fem_l/activation	vas_med_l/activation	vas_int_l/activation	vas_lat_l/activation	med_gas_l/activation	lat_gas_l/activation	soleus_l/activation	tib_post_l/activation	flex_dig_l/activation	flex_hal_l/activation	tib_ant_l/activation	per_brev_l/activation	per_long_l/activation	per_tert_l/activation	ext_dig_l/activation	ext_hal_l/activation	ercspn_l/activation	intobl_l/activation	extobl_l/activation	glut_med1_r/activation	glut_med2_r/activation	glut_med3_r/activation	glut_min1_r/activation	glut_min2_r/activation	glut_min3_r/activation	semimem_r/activation	semiten_r/activation	bifemlh_r/activation	bifemsh_r/activation	sar_r/activation	add_long_r/activation	add_brev_r/activation	add_mag1_r/activation	add_mag2_r/activation	add_mag3_r/activation	tfl_r/activation	pect_r/activation	grac_r/activation	glut_max1_r/activation	glut_max2_r/activation	glut_max3_r/activation	iliacus_r/activation	psoas_r/activation	quad_fem_r/activation	gem_r/activation	peri_r/activation	rect_fem_r/activation	vas_med_r/activation	vas_int_r/activation	vas_lat_r/activation	med_gas_r/activation	lat_gas_r/activation	soleus_r/activation	tib_post_r/activation	flex_dig_r/activation	flex_hal_r/activation	tib_ant_r/activation	per_brev_r/activation	per_long_r/activation	per_tert_r/activation	ext_dig_r/activation	ext_hal_r/activation	ercspn_r/activation	intobl_r/activation	extobl_r/activation	
          0.00000000	         -2.92847854	         -2.37136019	          6.23092565	          0.00000000	          0.91880497	         -0.00189697	        -15.94699871	         -1.65899203	          6.57461854	         28.99710401	          3.33929906	         -2.64767192	        -10.78060248	         -9.10302073	         -5.41114501	          5.03471919	         11.28539304	         -4.63135848	          9.71161655	         -0.12345798	          2.68431137	         -0.72892474	         -1.80217334	          0.41164467	         -2.45739477	          4.79829639	        -13.45217361	         15.79207092	         -6.51380790	        -13.46173980	          5.29968329	         38.58264671	         17.43336578	         86.51662706	         86.51662706	          0.21350383	          0.10247570	          0.07280166	          0.23727629	          0.18430332	          0.11402620	          0.05001140	          0.05000143	          0.05000104	          0.05000282	          0.10969791	          0.05731928	          0.07146304	          0.05001157	          0.05002579	          0.05000313	          0.30175059	          0.07160339	          0.05005225	          0.05001702	          0.05000378	          0.05000345	          0.44893808	          0.62040223	          0.05000098	          0.05000272	          0.05006034	          0.32722035	          0.05000208	          0.05000214	          0.05000195	          0.27085696	          0.36934171	          0.36649358	          0.24787888	          0.19510429	          0.27209303	          0.05000021	          0.05995624	          0.16924691	          0.05000143	          0.05000040	          0.05000126	          0.05000009	          0.05000074	          0.05745039	          0.05982378	          0.05982364	          0.05000173	          0.05982397	          0.05982389	          0.05010714	          0.21443333	          0.09866722	          0.14194588	          0.09279316	          0.05000148	          0.15100274	          0.25429153	          0.28755283	          0.23101448	          0.11268951	          0.05000068	          0.05013314	          0.16152025	          0.05021764	          0.07395713	          0.16520623	          0.05000938	          0.05000153	          0.18259224	          0.30923191	          0.13748329	          0.05000082	          0.09459633	          0.09224328	          0.08483027	          0.07358050	          0.07538009	          0.06340166	          0.05000031	          0.05000253	          0.05000218	          0.44823477	          0.24881222	          0.16776836	          0.08604003	          0.46542376	          0.21678827	          0.05068448	          0.12263297	          0.10246973	
          0.01178866	         -2.93015246	         -2.43941914	          6.51593221	          0.01797298	          0.91781631	         -0.00171468	        -15.94130683	         -1.97662527	          6.39698593	         28.32387350	          3.72963451	         -2.38943576	        -12.47435504	         -9.59446221	         -5.89887207	          4.34706576	         12.22208566	         -4.97714294	          8.25711002	         -0.23437556	          4.51378443	         -0.71498762	         -1.58586858	          0.58918248	         -2.53711740	          4.49941334	        -13.46192266	         16.16558136	         -7.46435838	        -13.45041216	          5.18116637	         39.73766100	         17.01094366	         86.51662706	         86.51662706	          0.17844396	          0.08564813	          0.06084859	          0.19831298	          0.15403877	          0.09530201	          0.05003260	          0.05000302	          0.05000323	          0.05000078	          0.09168519	          0.11284438	          0.05979466	          0.05982412	          0.05982116	          0.05982386	          0.25219997	          0.05985369	          0.05015001	          0.05016667	          0.05020748	          0.05980898	          0.37521932	          0.59474627	          0.05985762	          0.05992006	          0.05806204	          0.27348663	          0.13049296	          0.12207376	          0.13584172	          0.22637871	          0.30869116	          0.31491516	          0.20717608	          0.16306712	          0.22741342	          0.05000012	          0.05011095	          0.18664272	          0.05000053	          0.05000016	          0.05000073	          0.05425484	          0.07152126	          0.07157833	          0.05000006	          0.05000016	          0.10223844	          0.05000020	          0.05000022	          0.05000028	          0.17922073	          0.08246496	          0.11863659	          0.07755567	          0.05982526	          0.12620670	          0.31640060	          0.31862229	          0.20450005	          0.10498583	          0.05000126	          0.07163503	          0.14332348	          0.05005085	          0.10361803	          0.14617654	          0.05000059	          0.05982722	          0.54230065	          0.25845211	          0.11490705	          0.05982495	          0.08232092	          0.08544111	          0.07274756	          0.07054459	          0.07157747	          0.06117307	          0.05982371	          0.05005634	          0.05981991	          0.46953939	          0.28171344	          0.20941087	          0.07191154	          0.38899613	          0.18118903	          0.05000002	          0.10249503	          0.08564286	
          0.02357731	         -2.92698251	         -2.51017322	          6.76344035	          0.03629380	          0.91681416	         -0.00156678	        -15.90683360	         -2.29300951	          6.21328614	         27.53370113	          4.00164741	         -2.10496379	        -14.19868884	        -10.17612962	         -6.47135041	          3.74491938	         13.09594774	         -5.34370412	          6.51975681	         -0.41365726	          6.61265246	         -0.65073989	         -1.34689084	          0.77995446	         -2.60209348	          4.11031555	        -13.46772167	         16.45063194	         -8.44119569	        -13.45100307	          5.13100985	         40.87040258	         16.63303854	         86.51662706	         86.51662706	          0.30444114	          0.07158420	          0.05988642	          0.29480370	          0.12874941	          0.07965303	          0.05000350	          0.05000062	          0.05000053	          0.05000219	          0.08569848	          0.09431406	          0.05000063	          0.05000102	          0.05000162	          0.05000124	          0.23574628	          0.05004565	          0.05000192	          0.05005056	          0.05000544	          0.05000189	          0.31869639	          0.57168856	          0.05002871	          0.05008216	          0.05311822	          0.22857662	          0.10906479	          0.10202816	          0.11353515	          0.18920433	          0.25800005	          0.26320191	          0.17315526	          0.13628989	          0.19006959	          0.05000168	          0.10721457	          0.19205835	          0.05000170	          0.07371533	          0.05000183	          0.05025227	          0.05977654	          0.05982426	          0.23908373	          0.24224949	          0.27249845	          0.38520443	          0.25267059	          0.21379671	          0.14979066	          0.06902747	          0.09915667	          0.06483684	          0.05000271	          0.10548205	          0.26444365	          0.26630072	          0.17091958	          0.12422908	          0.05000166	          0.05987348	          0.11978909	          0.05000167	          0.11930037	          0.12225773	          0.05043876	          0.05000359	          0.45324780	          0.21601118	          0.19877787	          0.05000106	          0.06880333	          0.07141117	          0.06080198	          0.05896032	          0.05982364	          0.05112770	          0.05000033	          0.05000117	          0.05000139	          0.53543370	          0.32150348	          0.17502321	          0.36842674	          0.48447899	          0.15143748	          0.05808763	          0.12260081	          0.07157919	
          0.03536597	         -2.92140018	         -2.57759924	          6.96917838	          0.05471169	          0.91587372	         -0.00139392	        -15.78401562	         -2.59841576	          6.04682107	         26.72511334	          4.24113166	         -1.82419193	        -16.02863677	        -10.73506879	         -7.14359265	          3.15950152	         13.90878565	         -5.71054715	          4.57320773	         -0.31891267	          8.83662488	         -0.62036055	         -1.11263330	          0.97608992	         -2.65561831	          3.67401285	        -13.47910039	         16.67428518	         -9.38931229	        -13.45445010	          5.15118649	         41.95537938	         16.27453391	         86.51662706	         86.51662706	          0.25444924	          0.05982933	          0.05005282	          0.24639371	          0.10760745	          0.06657328	          0.05001420	          0.05000106	          0.05000111	          0.05000082	          0.07162638	          0.10600638	          0.06392692	          0.05011821	          0.05006885	          0.05000901	          0.19703418	          0.07154913	          0.05003336	          0.05004382	          0.05001739	          0.05000939	          0.26636239	          0.52368786	          0.05000730	          0.05003957	          0.05000262	          0.19104135	          0.12259957	          0.12259955	          0.12259962	          0.15813448	          0.21563307	          0.21998066	          0.14472105	          0.11390974	          0.15885802	          0.09205873	          0.11923396	          0.18679984	          0.05000841	          0.13314423	          0.05012973	          0.06809506	          0.05000008	          0.05000042	          0.34026256	          0.33996232	          0.36057597	          0.32194926	          0.21118222	          0.20566526	          0.12519333	          0.07205989	          0.08378842	          0.05419078	          0.05000770	          0.08816060	          0.22101862	          0.22257121	          0.14285366	          0.15445531	          0.05000144	          0.05004263	          0.10011884	          0.21614613	          0.18642074	          0.15512938	          0.05000023	          0.05000029	          0.37881867	          0.18053954	          0.16613667	          0.05000034	          0.10142535	          0.10910489	          0.08296480	          0.05000012	          0.05000030	          0.05000004	          0.05000011	          0.05000054	          0.05000041	          0.60015453	          0.30209379	          0.16653003	          0.55142849	          0.52900594	          0.28118302	          0.07154835	          0.10246816	          0.05982498	
